<?xml version="1.0" standalone="no"?>
<!DOCTYPE svg PUBLIC "-//W3C//DTD SVG 20010904//EN"
 "http://www.w3.org/TR/2001/REC-SVG-20010904/DTD/svg10.dtd">
<svg version="1.0" xmlns="http://www.w3.org/2000/svg"
 width="100.000000pt" height="100.000000pt" viewBox="0 0 100.000000 100.000000"
 preserveAspectRatio="xMidYMid meet">
<metadata>
Created by potrace 1.11, written by Peter Selinger 2001-2013
</metadata>
<g transform="translate(0.000000,100.000000) scale(0.100000,-0.100000)"
fill="#000000" stroke="none">
<path d="M175 796 c-115 -53 -147 -196 -65 -289 l28 -33 -29 -19 c-40 -27 -77
-76 -94 -126 -24 -66 -21 -81 17 -77 27 3 32 8 35 33 5 41 51 105 92 129 52
30 138 27 190 -7 54 -36 71 -64 88 -145 19 -92 46 -145 100 -192 79 -69 198
-88 296 -45 48 20 117 88 141 138 47 101 25 227 -54 308 -25 25 -50 48 -57 50
-10 3 -9 13 1 43 27 79 3 153 -67 210 -35 28 -45 31 -110 31 -64 0 -76 -3
-109 -28 -73 -56 -96 -151 -57 -237 17 -37 18 -46 6 -55 -7 -5 -28 -30 -45
-54 -25 -34 -33 -40 -38 -27 -3 9 -24 29 -45 44 l-39 29 22 19 c81 72 66 219
-28 284 -44 29 -133 38 -179 16z m149 -72 c64 -47 62 -151 -3 -201 -52 -39
-148 -17 -178 41 -61 117 75 237 181 160z m453 -18 c27 -29 33 -44 33 -78 0
-64 -7 -69 -96 -72 -43 -2 -88 -6 -99 -10 -39 -13 -65 70 -41 129 35 82 141
99 203 31z m6 -217 c46 -12 109 -67 130 -112 64 -136 -14 -284 -165 -311 -78
-14 -178 35 -220 109 -35 62 -32 156 7 220 52 85 150 122 248 94z"/>
<path d="M641 356 c-6 -45 -11 -86 -11 -93 0 -8 24 -13 73 -15 69 -3 72 -4 72
-28 0 -24 -3 -25 -72 -28 -63 -2 -73 -5 -73 -21 0 -27 21 -40 69 -45 49 -5
104 8 120 28 23 28 29 72 15 102 -19 39 -49 56 -96 56 -33 -1 -38 2 -38 21 0
36 13 44 63 42 47 -2 47 -2 47 30 l0 33 -79 -1 -78 0 -12 -81z"/>
</g>
</svg>
